# xmcd
#
# Track frame offsets:
#	150
#	12539
#	23481
#	36611
#	48771
#	59035
#	70659
#	80778
#	92230
#	102453
#	111453
#	126439
#	137159
#	149926
#	162221
#	174066
#	187847
#	196997
#	208659
#	219699
#	230404
#	244012
#	255522
#
# Disc length: 3559 seconds
#
# Revision: 2
# Processed by: cddbd v1.5.2PL0 Copyright (c) Steve Scherf et al.
# Submitted via: EasyCDDAExtractor 11.1.0.1
#
DISCID=5b0de517
DTITLE=Various Artist - Country Love Songs 3
DYEAR=1900
DGENRE=Country
TTITLE0=Hank Williams - Your Cheatin' Heart
TTITLE1=Jim and Jesse - Is It True
TTITLE2=Frankie Laine - When You're In Love
TTITLE3=Hank Snow - I Went To Your Wedding
TTITLE4=Jim and Jesse - I Will Always Be Wating For You
TTITLE5=Lefty Frizzel - Forever and Always
TTITLE6=Eddy Arnold - I Wanna Play House With You
TTITLE7=Ernest Tubb - Somebody Stole My Honey
TTITLE8=Hank Snow and Anita Carter - Down The Trail Of Achin' Hearts
TTITLE9=Patti Page - I Want To Be A Cowboys Sweetheart
TTITLE10=Slim Whitman - Indian Love Call
TTITLE11=Tennessee Ernie Ford and Helen O'Connell - Cool Cool Kisses
TTITLE12=Ernest Tubb - I Love You Because
TTITLE13=Red Foley - Careless Kisses
TTITLE14=Al Dexter - I'm Starting, Sweatheart, Again
TTITLE15=Wayne Raney - Why Don't You Haul Off And Love Me
TTITLE16=Doris Day and Frankie Laine - Sugarbush
TTITLE17=Hank Williams - Baby, We're Really In Love
TTITLE18=Gene Autry - You Are My Sunshine
TTITLE19=Hank Thompson - Swing Wide Your Gate Of Love
TTITLE20=Spade Cooley - A Par Of Broken Hearts
TTITLE21=Sweet Violet Boys - I Love My Fruit
TTITLE22=Tex Ritter - Have I Told You Lately That I Love You
EXTD=
EXTT0=
EXTT1=
EXTT2=
EXTT3=
EXTT4=
EXTT5=
EXTT6=
EXTT7=
EXTT8=
EXTT9=
EXTT10=
EXTT11=
EXTT12=
EXTT13=
EXTT14=
EXTT15=
EXTT16=
EXTT17=
EXTT18=
EXTT19=
EXTT20=
EXTT21=
EXTT22=
PLAYORDER=
